<svg width="196" height="89" viewBox="0 0 196 89" fill="none" xmlns="http://www.w3.org/2000/svg">
<path d="M9.56 72V48.92H0.24V43.8H25.08V48.92H15.76V72H9.56ZM39.2463 72V43.8H45.4463V66.76H58.4863V72H39.2463ZM70.0687 72L83.0288 43.8H88.0288L100.989 72H94.7488L91.3888 64.16L93.8688 65.88H77.1888L79.6688 64.16L76.3487 72H70.0687ZM85.4688 50.4L80.3488 62.6L79.2688 61.04H91.7888L90.7088 62.6L85.5488 50.4H85.4688ZM128.239 72.44C125.199 72.44 122.599 71.84 120.439 70.64C118.279 69.44 116.612 67.76 115.439 65.6C114.292 63.4133 113.719 60.84 113.719 57.88C113.719 54.92 114.292 52.36 115.439 50.2C116.612 48.04 118.279 46.36 120.439 45.16C122.599 43.96 125.199 43.36 128.239 43.36C130.105 43.36 131.892 43.6533 133.599 44.24C135.305 44.8267 136.705 45.6267 137.799 46.64L135.879 51.56C134.679 50.6267 133.465 49.9467 132.239 49.52C131.039 49.0667 129.772 48.84 128.439 48.84C125.772 48.84 123.745 49.6267 122.359 51.2C120.972 52.7467 120.279 54.9733 120.279 57.88C120.279 60.7867 120.972 63.0267 122.359 64.6C123.745 66.1733 125.772 66.96 128.439 66.96C129.772 66.96 131.039 66.7467 132.239 66.32C133.465 65.8667 134.679 65.1733 135.879 64.24L137.799 69.16C136.705 70.1733 135.305 70.9733 133.599 71.56C131.892 72.1467 130.105 72.44 128.239 72.44Z" fill="#DC143C"/>
</svg>
